<?xml version="1.0" encoding="utf-8"?>
<!-- Generator: Adobe Illustrator 27.2.0, SVG Export Plug-In . SVG Version: 6.00 Build 0)  -->
<svg version="1.1" id="Capa_1" xmlns="http://www.w3.org/2000/svg" xmlns:xlink="http://www.w3.org/1999/xlink" x="0px" y="0px"
	 viewBox="0 0 64.9 113.6" style="enable-background:new 0 0 64.9 113.6;" xml:space="preserve">
<style type="text/css">
	.st0{fill:#E1426F;}
</style>
<g>
	<path class="st0" d="M54.4,4.1c3.6,0,6.5,2.9,6.5,6.5v99.1H4V4.1H54.4 M54.4,0H4H0v4v105.6v4h4h56.9h4v-4V10.5
		C64.9,4.7,60.2,0,54.4,0L54.4,0z"/>
	<path class="st0" d="M19.1,38l-5.4-18h-0.1v18H9.7V10.9h4.6l4.9,16.2h0.1V10.9h3.9V38L19.1,38L19.1,38z"/>
	<path class="st0" d="M32.8,14.7v7.7h6v3.8h-6v8.1h7.5V38H28.7V10.9h11.6v3.8H32.8z"/>
	<path class="st0" d="M54.7,16.6v0.7l-4,0.4v-1c0-1.6-0.7-2.4-2.1-2.4c-1.4,0-2.1,0.8-2.1,2.4V17c0,1.6,0.7,3,3.5,5.3
		c3.8,3.2,5.2,5.4,5.2,8.7v1.4c0,3.9-2.3,6.1-6.4,6.1s-6.4-2.2-6.4-6.1v-1.8l4-0.4V32c0,1.7,0.8,2.6,2.3,2.6c1.6,0,2.3-0.9,2.3-2.6
		v-0.9c0-1.7-0.8-3.1-3.6-5.4c-3.8-3.2-5-5.4-5-8.6v-0.6c0-3.9,2.2-6.1,6.1-6.1S54.7,12.7,54.7,16.6z"/>
	<path class="st0" d="M23,70.4V51.6H23l-3.4,15h-2.4l-3.4-15h-0.1v18.9H9.7V43.2h5.4l3.2,14.6h0.1l3.2-14.6h5.5v27.2L23,70.4
		L23,70.4z"/>
	<path class="st0" d="M37.6,70.4l-0.9-6.2h-4.5l-0.9,6.2h-4.1l4.7-27.2h5.2l4.7,27.2H37.6z M32.7,60.5h3.5l-1.7-11.5h-0.1L32.7,60.5
		z"/>
	<path class="st0" d="M51.1,70.4l-5.4-18h-0.1v18h-3.9V43.2h4.6l4.9,16.2h0.1V43.2h3.9v27.2L51.1,70.4L51.1,70.4z"/>
	<path class="st0" d="M15.7,75.6c4.4,0,6.8,2.4,6.8,6.9v2.2c0,4.5-2.4,6.9-6.8,6.9h-1.8v11.3H9.7V75.6H15.7z M13.8,87.7h1.7
		c2,0,2.9-1,2.9-3.3v-1.6c0-2.3-0.9-3.3-2.9-3.3h-1.7V87.7z"/>
	<path class="st0" d="M31.9,91.3H30v11.5h-4.1V75.6h5.9c4.4,0,6.8,2.4,6.8,6.9v1.9c0,2.9-1,4.9-2.9,6l3.8,12.4h-4.4L31.9,91.3z
		 M30,87.5h1.7c2,0,2.9-1,2.9-3.3v-1.4c0-2.3-0.9-3.3-2.9-3.3H30V87.5z"/>
	<path class="st0" d="M55.2,82.1v14.2c0,4.3-2.5,6.9-6.6,6.9s-6.6-2.6-6.6-6.9V82.1c0-4.3,2.5-6.9,6.6-6.9S55.2,77.8,55.2,82.1z
		 M46,82.1v14.1c0,2,0.9,3.1,2.5,3.1c1.6,0,2.5-1.1,2.5-3.1V82.1c0-2-0.9-3.1-2.5-3.1C46.9,79,46,80.1,46,82.1z"/>
</g>
</svg>
